# xmcd
#
# Track frame offsets:
#	150
#	14895
#	29022
#	45907
#	60370
#	76730
#	96202
#	111992
#	126432
#	142907
#
# Disc length: 2208 seconds
# Revision: 5
# Processed by: cddbd v1.5.2PL0 Copyright (c) Steve Scherf et al.
# Submitted via: dBpowerAMP V12.0
#
DISCID=81089e0a
DTITLE=Pam Tillis - Homeward Looking Angel
DYEAR=1992
DGENRE=Country
TTITLE0=How Gone Is Goodbye
TTITLE1=Shake The Sugar Tree
TTITLE2=Do You Know Where Your Man Is
TTITLE3=Cleopatra, Queen Of Denial
TTITLE4=Love Is Only Human
TTITLE5=Rough And Tumble Heart
TTITLE6=Let That Pony Run
TTITLE7=Fine, Fine, Very Fine Love
TTITLE8=We've Tried Everything Else
TTITLE9=Homeward Looking Angel
EXTD=
EXTT0=
EXTT1=
EXTT2=
EXTT3=
EXTT4=
EXTT5=
EXTT6=
EXTT7=
EXTT8=
EXTT9=
PLAYORDER=
